<!DOCTYPE svg PUBLIC "-//W3C//DTD SVG 1.1//EN" "https://www.w3.org/Graphics/SVG/1.1/DTD/svg11.dtd"><svg xmlns="http://www.w3.org/2000/svg" class="sc-SrznA iJQKxp graph" data-testid="graph" role="img" aria-labelledby="polymath-graph-title" width="827" height="984"><title id="polymath-graph-title">Workflow Studio State Machine Graph</title><g transform="translate(12,12)" class="new-look-graph"><g class="nodes"><g class="node-container" transform="translate(401.5,22)"><g><circle class="sc-iMTnTL fxlwNh shape" r="22"/><text class="sc-jMakVo Qekbi label"><tspan xml:space="preserve" text-anchor="middle" alignment-baseline="central">Start</tspan></text></g></g><g class="node-container" transform="translate(401.5,103.5)"><g class="sc-fjvvzt bzUZla node state Task" data-testid="graph-Start EMR Cluster" data-state-id="Start EMR Cluster" data-state-type="Task"><g class="new-look-state-node "><rect x="-120" y="-24.5" width="240" height="49" rx="3" ry="3"/><g class="handle" transform="translate(-120,-24.5)"><path d="M5,16 L5,34 M8,16 L8,34"/></g><g class="icon" transform="translate(-104,-24)"><rect fill="var(--color-background-container-header-7s2tba, #fafafa)" x="0.0361026108" y="0.0181291967" width="48" height="48"/><line x1="47.5" y1="0.49122807" x2="47.5" y2="47.5" stroke="var(--color-board-placeholder-active-yji408, #d5dbdb)" stroke-linecap="square"/><line x1="0.5" y1="0.49122807" x2="0.5" y2="47.5" stroke="var(--color-board-placeholder-active-yji408, #d5dbdb)" stroke-linecap="square"/><use href="#icon-service-emr" aria-hidden="true"><title>EMR</title></use></g><g class="text-lines" transform="translate(-48,-24.5)"><text transform="translate(0,17)" class="line1"><tspan xml:space="preserve" text-anchor="start">EMR: CreateCluster</tspan></text><text transform="translate(0,35.5)" class="line2 label"><tspan xml:space="preserve" text-anchor="start">Start EMR Cluster</tspan></text></g></g></g></g><g class="node-container" transform="translate(401.5,187.5)"><g class="sc-fjvvzt bzUZla node state Task" data-testid="graph-Run Spark Job 1" data-state-id="Run Spark Job 1" data-state-type="Task"><g class="new-look-state-node "><rect x="-120" y="-24.5" width="240" height="49" rx="3" ry="3"/><g class="handle" transform="translate(-120,-24.5)"><path d="M5,16 L5,34 M8,16 L8,34"/></g><g class="icon" transform="translate(-104,-24)"><rect fill="var(--color-background-container-header-7s2tba, #fafafa)" x="0.0361026108" y="0.0181291967" width="48" height="48"/><line x1="47.5" y1="0.49122807" x2="47.5" y2="47.5" stroke="var(--color-board-placeholder-active-yji408, #d5dbdb)" stroke-linecap="square"/><line x1="0.5" y1="0.49122807" x2="0.5" y2="47.5" stroke="var(--color-board-placeholder-active-yji408, #d5dbdb)" stroke-linecap="square"/><use href="#icon-service-emr" aria-hidden="true"><title>EMR</title></use></g><g class="text-lines" transform="translate(-48,-24.5)"><text transform="translate(0,17)" class="line1"><tspan xml:space="preserve" text-anchor="start">EMR: AddStep</tspan></text><text transform="translate(0,35.5)" class="line2 label"><tspan xml:space="preserve" text-anchor="start">Run Spark Job 1</tspan></text></g></g></g></g><g class="node-container" transform="translate(401.5,271.5)"><g class="sc-fjvvzt bzUZla node state Task" data-testid="graph-Run Spark Job 2" data-state-id="Run Spark Job 2" data-state-type="Task"><g class="new-look-state-node "><rect x="-120" y="-24.5" width="240" height="49" rx="3" ry="3"/><g class="handle" transform="translate(-120,-24.5)"><path d="M5,16 L5,34 M8,16 L8,34"/></g><g class="icon" transform="translate(-104,-24)"><rect fill="var(--color-background-container-header-7s2tba, #fafafa)" x="0.0361026108" y="0.0181291967" width="48" height="48"/><line x1="47.5" y1="0.49122807" x2="47.5" y2="47.5" stroke="var(--color-board-placeholder-active-yji408, #d5dbdb)" stroke-linecap="square"/><line x1="0.5" y1="0.49122807" x2="0.5" y2="47.5" stroke="var(--color-board-placeholder-active-yji408, #d5dbdb)" stroke-linecap="square"/><use href="#icon-service-emr" aria-hidden="true"><title>EMR</title></use></g><g class="text-lines" transform="translate(-48,-24.5)"><text transform="translate(0,17)" class="line1"><tspan xml:space="preserve" text-anchor="start">EMR: AddStep</tspan></text><text transform="translate(0,35.5)" class="line2 label"><tspan xml:space="preserve" text-anchor="start">Run Spark Job 2</tspan></text></g></g></g></g><g class="node-container" transform="translate(401.5,355.5)"><g class="sc-fjvvzt bzUZla node state Task" data-testid="graph-Trigger Glue Crawler" data-state-id="Trigger Glue Crawler" data-state-type="Task"><g class="new-look-state-node "><rect x="-120" y="-24.5" width="240" height="49" rx="3" ry="3"/><g class="handle" transform="translate(-120,-24.5)"><path d="M5,16 L5,34 M8,16 L8,34"/></g><g class="icon" transform="translate(-104,-24)"><rect fill="var(--color-background-container-header-7s2tba, #fafafa)" x="0.0361026108" y="0.0181291967" width="48" height="48"/><line x1="47.5" y1="0.49122807" x2="47.5" y2="47.5" stroke="var(--color-board-placeholder-active-yji408, #d5dbdb)" stroke-linecap="square"/><line x1="0.5" y1="0.49122807" x2="0.5" y2="47.5" stroke="var(--color-board-placeholder-active-yji408, #d5dbdb)" stroke-linecap="square"/><use href="#icon-service-glue" aria-hidden="true"><title>AWS Glue</title></use></g><g class="text-lines" transform="translate(-48,-24.5)"><text transform="translate(0,17)" class="line1"><tspan xml:space="preserve" text-anchor="start">Glue: StartCrawler</tspan></text><text transform="translate(0,35.5)" class="line2 label"><tspan xml:space="preserve" text-anchor="start">Trigger Glue Crawler</tspan></text></g></g></g></g><g class="node-container" transform="translate(401.5,439.5)"><g class="sc-fjvvzt bzUZla node state Wait" data-testid="graph-Wait For Crawler Completion" data-state-id="Wait For Crawler Completion" data-state-type="Wait"><g class="new-look-state-node "><rect x="-132.5" y="-24.5" width="265" height="49" rx="3" ry="3"/><g class="handle" transform="translate(-132.5,-24.5)"><path d="M5,16 L5,34 M8,16 L8,34"/></g><g class="icon" transform="translate(-116.5,-24)"><rect fill="var(--color-background-container-header-7s2tba, #fafafa)" x="0.0361026108" y="0.0181291967" width="48" height="48"/><line x1="47.5" y1="0.49122807" x2="47.5" y2="47.5" stroke="var(--color-board-placeholder-active-yji408, #d5dbdb)" stroke-linecap="square"/><line x1="0.5" y1="0.49122807" x2="0.5" y2="47.5" stroke="var(--color-board-placeholder-active-yji408, #d5dbdb)" stroke-linecap="square"/><use href="#icon-flow-wait"/></g><g class="text-lines" transform="translate(-60.5,-24.5)"><text transform="translate(0,17)" class="line1"><tspan xml:space="preserve" text-anchor="start">Wait state</tspan></text><text transform="translate(0,35.5)" class="line2 label"><tspan xml:space="preserve" text-anchor="start">Wait For Crawler Completion</tspan></text></g></g></g></g><g class="node-container" transform="translate(401.5,606)"><g class="sc-fjvvzt bzUZla node state container Parallel" data-testid="graph-Parallel Athena Queries" data-state-id="Parallel Athena Queries" data-state-type="Parallel"><g class="new-look-state-node "><g class="bounding-box" transform="translate(0,5)"><rect class="sc-hwdzOV iVNfpT shape" rx="7" ry="7" x="-401.5" y="-107" width="803" height="209"/><g class="content" transform="translate(-401.5,-107)"><g class="branch" transform="translate(20,89)"><g class="branchInsertArea" data-insertion-index="0" data-parent-state-id="Parallel Athena Queries" id="Parallel Athena Queries:0" x="-20" y="0" width="20" height="100"><rect x="-20" y="0" width="20" height="100" stroke="none" fill="none"/><path d="M-10,0 l0,100" stroke="none" fill="none"/></g><g transform=""><g class="nodes"><g class="node-container" transform="translate(120.5,24.5)"><g class="sc-fjvvzt bzUZla node state Task" data-testid="graph-Run Athena Query 1" data-state-id="Run Athena Query 1" data-state-type="Task"><g class="new-look-state-node "><rect x="-120.5" y="-24.5" width="241" height="49" rx="3" ry="3"/><g class="handle" transform="translate(-120.5,-24.5)"><path d="M5,16 L5,34 M8,16 L8,34"/></g><g class="icon" transform="translate(-104.5,-24)"><rect fill="var(--color-background-container-header-7s2tba, #fafafa)" x="0.0361026108" y="0.0181291967" width="48" height="48"/><line x1="47.5" y1="0.49122807" x2="47.5" y2="47.5" stroke="var(--color-board-placeholder-active-yji408, #d5dbdb)" stroke-linecap="square"/><line x1="0.5" y1="0.49122807" x2="0.5" y2="47.5" stroke="var(--color-board-placeholder-active-yji408, #d5dbdb)" stroke-linecap="square"/><use href="#icon-service-athena" aria-hidden="true"><title>Athena</title></use></g><g class="text-lines" transform="translate(-48.5,-24.5)"><text transform="translate(0,17)" class="line1"><tspan xml:space="preserve" text-anchor="start">Athena: StartQueryExecution</tspan></text><text transform="translate(0,35.5)" class="line2 label"><tspan xml:space="preserve" text-anchor="start">Run Athena Query 1</tspan></text></g></g></g></g><g class="node-container" transform="translate(120.5,92)"><g><circle class="sc-krNlru QJTBD shape" r="8"/></g></g></g><g class="edges"><g class="sc-bbSZdi dmgznJ edge"><path id="state-Run Athena Query 1:end:normal" d="M120.5,49L120.5,51.916666666666664C120.5,54.833333333333336,120.5,60.666666666666664,120.5,66.5C120.5,72.33333333333333,120.5,78.16666666666667,120.5,81.08333333333333L120.5,84" marker-end="url(#arrowhead)" fill="none"/></g></g></g><g class="branchInsertArea" data-insertion-index="1" data-parent-state-id="Parallel Athena Queries" id="Parallel Athena Queries:1" x="241" y="0" width="20" height="100"><rect x="241" y="0" width="20" height="100" stroke="none" fill="none"/><path d="M251,0 l0,100" stroke="none" fill="none"/></g></g><g class="branch" transform="translate(281,89)"><g transform=""><g class="nodes"><g class="node-container" transform="translate(120.5,24.5)"><g class="sc-fjvvzt bzUZla node state Task" data-testid="graph-Run Athena Query 2" data-state-id="Run Athena Query 2" data-state-type="Task"><g class="new-look-state-node "><rect x="-120.5" y="-24.5" width="241" height="49" rx="3" ry="3"/><g class="handle" transform="translate(-120.5,-24.5)"><path d="M5,16 L5,34 M8,16 L8,34"/></g><g class="icon" transform="translate(-104.5,-24)"><rect fill="var(--color-background-container-header-7s2tba, #fafafa)" x="0.0361026108" y="0.0181291967" width="48" height="48"/><line x1="47.5" y1="0.49122807" x2="47.5" y2="47.5" stroke="var(--color-board-placeholder-active-yji408, #d5dbdb)" stroke-linecap="square"/><line x1="0.5" y1="0.49122807" x2="0.5" y2="47.5" stroke="var(--color-board-placeholder-active-yji408, #d5dbdb)" stroke-linecap="square"/><use href="#icon-service-athena" aria-hidden="true"><title>Athena</title></use></g><g class="text-lines" transform="translate(-48.5,-24.5)"><text transform="translate(0,17)" class="line1"><tspan xml:space="preserve" text-anchor="start">Athena: StartQueryExecution</tspan></text><text transform="translate(0,35.5)" class="line2 label"><tspan xml:space="preserve" text-anchor="start">Run Athena Query 2</tspan></text></g></g></g></g><g class="node-container" transform="translate(120.5,92)"><g><circle class="sc-krNlru QJTBD shape" r="8"/></g></g></g><g class="edges"><g class="sc-bbSZdi dmgznJ edge"><path id="state-Run Athena Query 2:end:normal" d="M120.5,49L120.5,51.916666666666664C120.5,54.833333333333336,120.5,60.666666666666664,120.5,66.5C120.5,72.33333333333333,120.5,78.16666666666667,120.5,81.08333333333333L120.5,84" marker-end="url(#arrowhead)" fill="none"/></g></g></g><g class="branchInsertArea" data-insertion-index="2" data-parent-state-id="Parallel Athena Queries" id="Parallel Athena Queries:2" x="241" y="0" width="20" height="100"><rect x="241" y="0" width="20" height="100" stroke="none" fill="none"/><path d="M251,0 l0,100" stroke="none" fill="none"/></g></g><g class="branch" transform="translate(542,89)"><g transform=""><g class="nodes"><g class="node-container" transform="translate(120.5,24.5)"><g class="sc-fjvvzt bzUZla node state Task" data-testid="graph-Run Athena Query 3" data-state-id="Run Athena Query 3" data-state-type="Task"><g class="new-look-state-node "><rect x="-120.5" y="-24.5" width="241" height="49" rx="3" ry="3"/><g class="handle" transform="translate(-120.5,-24.5)"><path d="M5,16 L5,34 M8,16 L8,34"/></g><g class="icon" transform="translate(-104.5,-24)"><rect fill="var(--color-background-container-header-7s2tba, #fafafa)" x="0.0361026108" y="0.0181291967" width="48" height="48"/><line x1="47.5" y1="0.49122807" x2="47.5" y2="47.5" stroke="var(--color-board-placeholder-active-yji408, #d5dbdb)" stroke-linecap="square"/><line x1="0.5" y1="0.49122807" x2="0.5" y2="47.5" stroke="var(--color-board-placeholder-active-yji408, #d5dbdb)" stroke-linecap="square"/><use href="#icon-service-athena" aria-hidden="true"><title>Athena</title></use></g><g class="text-lines" transform="translate(-48.5,-24.5)"><text transform="translate(0,17)" class="line1"><tspan xml:space="preserve" text-anchor="start">Athena: StartQueryExecution</tspan></text><text transform="translate(0,35.5)" class="line2 label"><tspan xml:space="preserve" text-anchor="start">Run Athena Query 3</tspan></text></g></g></g></g><g class="node-container" transform="translate(120.5,92)"><g><circle class="sc-krNlru QJTBD shape" r="8"/></g></g></g><g class="edges"><g class="sc-bbSZdi dmgznJ edge"><path id="state-Run Athena Query 3:end:normal" d="M120.5,49L120.5,51.916666666666664C120.5,54.833333333333336,120.5,60.666666666666664,120.5,66.5C120.5,72.33333333333333,120.5,78.16666666666667,120.5,81.08333333333333L120.5,84" marker-end="url(#arrowhead)" fill="none"/></g></g></g><g class="branchInsertArea" data-insertion-index="3" data-parent-state-id="Parallel Athena Queries" id="Parallel Athena Queries:3" x="241" y="0" width="20" height="100"><rect x="241" y="0" width="20" height="100" stroke="none" fill="none"/><path d="M251,0 l0,100" stroke="none" fill="none"/></g></g><g class="sc-bbSZdi dmgznJ"><path id="Parallel Athena Queries-Run Athena Query 1" class="path starting-connection" d="M401.5,44L401.5,47.75C401.5,51.5,401.5,59,358,62.75C314.5,66.5,227.5,66.5,184,70.25C140.5,74,140.5,81.5,140.5,85.25L140.5,89" fill="none"/></g><g class="sc-bbSZdi dmgznJ"><path id="Parallel Athena Queries-Run Athena Query 2" class="path starting-connection" d="M401.5,44L401.5,47.75C401.5,51.5,401.5,59,401.5,62.75C401.5,66.5,401.5,66.5,401.5,70.25C401.5,74,401.5,81.5,401.5,85.25L401.5,89" fill="none"/></g><g class="sc-bbSZdi dmgznJ"><path id="Parallel Athena Queries-Run Athena Query 3" class="path starting-connection" d="M401.5,44L401.5,47.75C401.5,51.5,401.5,59,445,62.75C488.5,66.5,575.5,66.5,619,70.25C662.5,74,662.5,81.5,662.5,85.25L662.5,89" fill="none"/></g></g></g><g class="new-look-state-node "><rect x="-120" y="-107" width="240" height="49" rx="3" ry="3"/><g class="handle" transform="translate(-120,-107)"><path d="M5,16 L5,34 M8,16 L8,34"/></g><g class="icon" transform="translate(-104,-106.5)"><rect fill="var(--color-background-container-header-7s2tba, #fafafa)" x="0.0361026108" y="0.0181291967" width="48" height="48"/><line x1="47.5" y1="0.49122807" x2="47.5" y2="47.5" stroke="var(--color-board-placeholder-active-yji408, #d5dbdb)" stroke-linecap="square"/><line x1="0.5" y1="0.49122807" x2="0.5" y2="47.5" stroke="var(--color-board-placeholder-active-yji408, #d5dbdb)" stroke-linecap="square"/><use href="#icon-flow-parallel"/></g><g class="text-lines" transform="translate(-48,-107)"><text transform="translate(0,17)" class="line1"><tspan xml:space="preserve" text-anchor="start">Parallel state</tspan></text><text transform="translate(0,35.5)" class="line2 label"><tspan xml:space="preserve" text-anchor="start">Parallel Athena Queries</tspan></text></g></g></g></g></g><g class="node-container" transform="translate(401.5,772.5)"><g class="sc-fjvvzt bzUZla node state Task" data-testid="graph-Terminate EMR Cluster" data-state-id="Terminate EMR Cluster" data-state-type="Task"><g class="new-look-state-node "><rect x="-120" y="-24.5" width="240" height="49" rx="3" ry="3"/><g class="handle" transform="translate(-120,-24.5)"><path d="M5,16 L5,34 M8,16 L8,34"/></g><g class="icon" transform="translate(-104,-24)"><rect fill="var(--color-background-container-header-7s2tba, #fafafa)" x="0.0361026108" y="0.0181291967" width="48" height="48"/><line x1="47.5" y1="0.49122807" x2="47.5" y2="47.5" stroke="var(--color-board-placeholder-active-yji408, #d5dbdb)" stroke-linecap="square"/><line x1="0.5" y1="0.49122807" x2="0.5" y2="47.5" stroke="var(--color-board-placeholder-active-yji408, #d5dbdb)" stroke-linecap="square"/><use href="#icon-service-emr" aria-hidden="true"><title>EMR</title></use></g><g class="text-lines" transform="translate(-48,-24.5)"><text transform="translate(0,17)" class="line1"><tspan xml:space="preserve" text-anchor="start">EMR: TerminateCluster</tspan></text><text transform="translate(0,35.5)" class="line2 label"><tspan xml:space="preserve" text-anchor="start">Terminate EMR Cluster</tspan></text></g></g></g></g><g class="node-container" transform="translate(401.5,856.5)"><g class="sc-fjvvzt bzUZla node state Task" data-testid="graph-SNS Publish" data-state-id="SNS Publish" data-state-type="Task"><g class="new-look-state-node "><rect x="-120" y="-24.5" width="240" height="49" rx="3" ry="3"/><g class="handle" transform="translate(-120,-24.5)"><path d="M5,16 L5,34 M8,16 L8,34"/></g><g class="icon" transform="translate(-104,-24)"><rect fill="var(--color-background-container-header-7s2tba, #fafafa)" x="0.0361026108" y="0.0181291967" width="48" height="48"/><line x1="47.5" y1="0.49122807" x2="47.5" y2="47.5" stroke="var(--color-board-placeholder-active-yji408, #d5dbdb)" stroke-linecap="square"/><line x1="0.5" y1="0.49122807" x2="0.5" y2="47.5" stroke="var(--color-board-placeholder-active-yji408, #d5dbdb)" stroke-linecap="square"/><use href="#icon-service-sns" aria-hidden="true"><title>Simple Notification Service</title></use></g><g class="text-lines" transform="translate(-48,-24.5)"><text transform="translate(0,17)" class="line1"><tspan xml:space="preserve" text-anchor="start">SNS: Publish</tspan></text><text transform="translate(0,35.5)" class="line2 label"><tspan xml:space="preserve" text-anchor="start">SNS Publish</tspan></text></g></g></g></g><g class="node-container" transform="translate(401.5,938)"><g><circle class="sc-iMTnTL fxlwNh shape" r="22"/><text class="sc-jMakVo Qekbi label"><tspan xml:space="preserve" text-anchor="middle" alignment-baseline="central">End</tspan></text></g></g></g><g class="edges"><g class="sc-bbSZdi dmgznJ edge"><path id="state-Start EMR Cluster:state-Run Spark Job 1:normal" d="M401.5,128L401.5,130.91666666666666C401.5,133.83333333333334,401.5,139.66666666666666,401.5,145.5C401.5,151.33333333333334,401.5,157.16666666666666,401.5,160.08333333333334L401.5,163" marker-end="url(#arrowhead)" fill="none"/></g><g class="sc-bbSZdi dmgznJ edge"><path id="start:state-Start EMR Cluster" d="M401.5,44L401.5,46.916666666666664C401.5,49.833333333333336,401.5,55.666666666666664,401.5,61.5C401.5,67.33333333333333,401.5,73.16666666666667,401.5,76.08333333333333L401.5,79" marker-end="url(#arrowhead)" fill="none"/></g><g class="sc-bbSZdi dmgznJ edge"><path id="state-Run Spark Job 1:state-Run Spark Job 2:normal" d="M401.5,212L401.5,214.91666666666666C401.5,217.83333333333334,401.5,223.66666666666666,401.5,229.5C401.5,235.33333333333334,401.5,241.16666666666666,401.5,244.08333333333334L401.5,247" marker-end="url(#arrowhead)" fill="none"/></g><g class="sc-bbSZdi dmgznJ edge"><path id="state-Run Spark Job 2:state-Trigger Glue Crawler:normal" d="M401.5,296L401.5,298.9166666666667C401.5,301.8333333333333,401.5,307.6666666666667,401.5,313.5C401.5,319.3333333333333,401.5,325.1666666666667,401.5,328.0833333333333L401.5,331" marker-end="url(#arrowhead)" fill="none"/></g><g class="sc-bbSZdi dmgznJ edge"><path id="state-Trigger Glue Crawler:state-Wait For Crawler Completion:normal" d="M401.5,380L401.5,382.9166666666667C401.5,385.8333333333333,401.5,391.6666666666667,401.5,397.5C401.5,403.3333333333333,401.5,409.1666666666667,401.5,412.0833333333333L401.5,415" marker-end="url(#arrowhead)" fill="none"/></g><g class="sc-bbSZdi dmgznJ edge"><path id="state-Wait For Crawler Completion:state-Parallel Athena Queries:normal" d="M401.5,464L401.5,466.9166666666667C401.5,469.8333333333333,401.5,475.6666666666667,401.5,481.5C401.5,487.3333333333333,401.5,493.1666666666667,401.5,496.0833333333333L401.5,499" marker-end="url(#arrowhead)" fill="none"/></g><g class="sc-bbSZdi dmgznJ edge"><path id="state-Parallel Athena Queries:state-Terminate EMR Cluster:normal" d="M401.5,713L401.5,715.9166666666666C401.5,718.8333333333334,401.5,724.6666666666666,401.5,730.5C401.5,736.3333333333334,401.5,742.1666666666666,401.5,745.0833333333334L401.5,748" marker-end="url(#arrowhead)" fill="none"/></g><g class="sc-bbSZdi dmgznJ edge"><path id="state-Terminate EMR Cluster:state-SNS Publish:normal" d="M401.5,797L401.5,799.9166666666666C401.5,802.8333333333334,401.5,808.6666666666666,401.5,814.5C401.5,820.3333333333334,401.5,826.1666666666666,401.5,829.0833333333334L401.5,832" marker-end="url(#arrowhead)" fill="none"/></g><g class="sc-bbSZdi dmgznJ edge"><path id="state-SNS Publish:end:normal" d="M401.5,881L401.5,883.9166666666666C401.5,886.8333333333334,401.5,892.6666666666666,401.5,898.5C401.5,904.3333333333334,401.5,910.1666666666666,401.5,913.0833333333334L401.5,916" marker-end="url(#arrowhead)" fill="none"/></g></g><defs><marker id="arrowhead" markerWidth="8" markerHeight="6" refX="7" refY="3" orient="auto" class="sc-ihgnxF hBrtye"><polygon points="0 0, 8 3, 0 6"/></marker><marker id="highlighted-arrowhead" markerWidth="6" markerHeight="4" refX="5" refY="2" orient="auto" class="sc-ihgnxF hBrtye"><polygon points="0 0, 6 2, 0 4"/></marker><marker id="error-arrowhead" markerWidth="6" markerHeight="4" refX="5" refY="2" orient="auto" class="sc-ihgnxF hBrtye"><polygon points="0 0, 6 2, 0 4"/></marker><marker id="large-arrowhead" markerWidth="10" markerHeight="8" refX="9" refY="4" orient="auto" class="sc-ihgnxF hBrtye"><polygon points="0 0, 10 4, 0 8"/></marker><marker id="large-highlighted-arrowhead" markerWidth="5.5" markerHeight="4" refX="4.5" refY="2" orient="auto" class="sc-ihgnxF hBrtye"><polygon points="0 0, 5.5 2, 0 4"/></marker><marker id="large-error-arrowhead" markerWidth="10" markerHeight="8" refX="9" refY="4" orient="auto" class="sc-ihgnxF hBrtye"><polygon points="0 0, 10 4, 0 8"/></marker><linearGradient x1="0%" y1="100%" x2="100%" y2="0%" id="gradient-orange"><stop stop-color="#C8511B" offset="0%"/><stop stop-color="#FF9900" offset="100%"/></linearGradient><linearGradient x1="0%" y1="100%" x2="100%" y2="0%" id="gradient-turquoise"><stop stop-color="#055F4E" offset="0%"/><stop stop-color="#56C0A7" offset="100%"/></linearGradient><linearGradient x1="0%" y1="100%" x2="100%" y2="0%" id="gradient-blue"><stop stop-color="#2E27AD" offset="0%"/><stop stop-color="#527FFF" offset="100%"/></linearGradient><linearGradient x1="0%" y1="100%" x2="100%" y2="0%" id="gradient-pink"><stop stop-color="#B0084D" offset="0%"/><stop stop-color="#FF4F8B" offset="100%"/></linearGradient><linearGradient x1="0%" y1="100%" x2="100%" y2="0%" id="gradient-red"><stop stop-color="#BD0816" offset="0%"/><stop stop-color="#FF5252" offset="100%"/></linearGradient><linearGradient x1="0%" y1="100%" x2="100%" y2="0%" id="gradient-green"><stop stop-color="#1B660F" offset="0%"/><stop stop-color="#6CAE3E" offset="100%"/></linearGradient><linearGradient x1="0%" y1="100%" x2="100%" y2="0%" id="gradient-purple"><stop stop-color="#4D27A8" offset="0%"/><stop stop-color="#A166FF" offset="100%"/></linearGradient><linearGradient x1="0%" y1="100%" x2="100%" y2="0%" id="gradient-grey"><stop stop-color="#DCDCDC" offset="0%"/><stop stop-color="#F6F5F7" offset="100%"/></linearGradient><linearGradient x1="0%" y1="100%" x2="100%" y2="0%" id="gradient-light-pink"><stop stop-color="#DD344C" offset="0%"/><stop stop-color="#DD344C" offset="100%"/></linearGradient>,<linearGradient x1="0%" y1="100%" x2="100%" y2="0%" id="gradient-ag"><stop stop-color="#BC1356" offset="0%"/><stop stop-color="#F34482" offset="100%"/></linearGradient><linearGradient x1="0%" y1="100%" x2="100%" y2="0%" id="gradient-athena"><stop stop-color="#5930B5" offset="0%"/><stop stop-color="#945DF2" offset="100%"/></linearGradient><linearGradient x1="0%" y1="100%" x2="100%" y2="0%" id="gradient-emr"><stop stop-color="#5930B5" offset="0%"/><stop stop-color="#945DF2" offset="100%"/></linearGradient><linearGradient x1="0%" y1="100%" x2="100%" y2="0%" id="gradient-glue"><stop stop-color="#5930B5" offset="0%"/><stop stop-color="#945DF2" offset="100%"/></linearGradient><linearGradient x1="0%" y1="100%" x2="100%" y2="0%" id="gradient-sns"><stop stop-color="#BC1356" offset="0%"/><stop stop-color="#F34482" offset="100%"/></linearGradient><linearGradient x1="0%" y1="100%" x2="100%" y2="0%" id="gradient-states"><stop stop-color="#BC1356" offset="0%"/><stop stop-color="#F34482" offset="100%"/></linearGradient><linearGradient x1="0%" y1="100%" x2="100%" y2="0%" id="gradient-generic"><stop stop-color="#ccc" offset="0%"/><stop stop-color="#ddd" offset="100%"/></linearGradient><g stroke-width="1" fill="none" fill-rule="evenodd" id="icon-flow-wait"><path d="M26.75,8.85825893 L26.75,10.3582589 L25,10.3582589 L25.0010332,13.2887186 C27.2395643,13.4625704 29.3159269,14.2145278 31.0809903,15.3954598 L32.3188424,13.6912711 L34.7458934,15.4546269 L33.3682881,17.3513419 C35.4674483,19.6240431 36.75,22.6622436 36.75,26 C36.75,33.0416306 31.0416306,38.75 24,38.75 C16.9583694,38.75 11.25,33.0416306 11.25,26 C11.25,22.7657627 12.4542298,19.8127884 14.4387685,17.5649977 L12.9047966,15.4546269 L15.3318476,13.6912711 L16.6858812,15.555197 C18.2387522,14.4657629 20.0456704,13.7138336 22.0001068,13.4059384 L22,10.3582589 L20.25,10.3582589 L20.25,8.85825893 L26.75,8.85825893 Z M24,14.75 C17.7867966,14.75 12.75,19.7867966 12.75,26 C12.75,32.2132034 17.7867966,37.25 24,37.25 C30.2132034,37.25 35.25,32.2132034 35.25,26 C35.25,19.7867966 30.2132034,14.75 24,14.75 Z M24.4666648,19.3452148 L24.466,26.499 L30.9387207,26.4993034 L30.9387207,27.9993034 L23.7166648,27.9993034 C23.336969,27.9993034 23.0231738,27.7171495 22.9735114,27.3510739 L22.9666648,27.2493034 L22.9666648,19.3452148 L24.4666648,19.3452148 Z" fill-rule="nonzero" fill="#0073BB"/></g><g stroke="none" stroke-width="1" fill="none" fill-rule="evenodd" id="icon-flow-parallel"><g transform="translate(7.794758, 8.750000)" fill="#0073BB" fill-rule="nonzero"><path d="M16.199562,30.9615157 L16.1088907,30.9567289 L16.0428411,30.9462621 L15.9289205,30.9134016 L15.8581395,30.8824655 L15.747534,30.8144639 L15.6634156,30.7418457 L12.1634156,27.2418457 C11.8705224,26.9489525 11.8705224,26.4740788 12.1634156,26.1811856 C12.4296821,25.914919 12.8463458,25.890713 13.1399573,26.1085674 L13.2240758,26.1811856 L15.455,28.412 L15.455,12.999 L4.95524179,12.999 L4.955,28.446 L7.21966991,26.1811856 L7.30378835,26.1085674 C7.59739984,25.890713 8.01406352,25.914919 8.28033009,26.1811856 C8.54659665,26.4474521 8.5708027,26.8641158 8.35294824,27.1577273 L8.28033009,27.2418457 L4.78033009,30.7418457 L4.69621165,30.8144639 L4.689,30.818 C4.66089447,30.8406686 4.6237969,30.8633711 4.58539483,30.8825712 L4.50825575,30.9158403 L4.44163507,30.9367462 L4.36774058,30.9522701 L4.27779844,30.9610057 L4.22212648,30.9610007 L4.09909543,30.9462621 L3.99176083,30.9158467 L3.9143938,30.8824655 L3.82554184,30.8300094 L3.80378835,30.8144639 L3.71966991,30.7418457 L0.219669914,27.2418457 C-0.0732233047,26.9489525 -0.0732233047,26.4740788 0.219669914,26.1811856 C0.485936477,25.914919 0.902600159,25.890713 1.19621165,26.1085674 L1.28033009,26.1811856 L3.455,28.356 L3.45524179,12.25 C3.45524179,11.8703042 3.73739568,11.556509 4.10347124,11.5068466 L4.20524179,11.5 L15.455,11.502 L15.4552418,-1.42108547e-13 L16.9552418,-1.42108547e-13 L16.955,11.495 L28.1555171,11.5 C28.5351143,11.5001394 28.8487603,11.7822674 28.8983985,12.1482549 L28.9052418,12.25 L28.905,28.44 L31.1641955,26.1811856 L31.2483139,26.1085674 C31.5419254,25.890713 31.9585891,25.914919 32.2248557,26.1811856 C32.4911222,26.4474521 32.5153283,26.8641158 32.2974738,27.1577273 L32.2248557,27.2418457 L28.7248557,30.7418457 C28.6845386,30.7821628 28.6407734,30.8169302 28.5945094,30.8461478 L28.5328469,30.8811 L28.4268027,30.9248089 L28.3112733,30.9524264 L28.1887092,30.9615157 L28.1087231,30.9566189 L28.0352714,30.9445058 L27.9277401,30.9126603 L27.8920604,30.8980433 L27.8568141,30.8814079 C27.8351606,30.8704626 27.8145136,30.8587698 27.7943421,30.8460217 C27.7482777,30.8169302 27.7045126,30.7821628 27.6641955,30.7418457 L24.1641955,27.2418457 C23.8713023,26.9489525 23.8713023,26.4740788 24.1641955,26.1811856 C24.4304621,25.914919 24.8471258,25.890713 25.1407372,26.1085674 L25.2248557,26.1811856 L27.405,28.362 L27.4052418,12.999 L16.955,12.992 L16.955,28.389 L19.1634156,26.1811856 L19.247534,26.1085674 C19.5411455,25.890713 19.9578092,25.914919 20.2240758,26.1811856 C20.4903423,26.4474521 20.5145484,26.8641158 20.2966939,27.1577273 L20.2240758,27.2418457 L16.7240758,30.7418457 L16.6399573,30.8144639 L16.636,30.816 L16.589136,30.8490255 L16.5330413,30.8806066 L16.4260228,30.9248089 L16.3532729,30.9444467 L16.2795333,30.9566255 L16.199562,30.9615157 Z" fill="false"/></g></g><g stroke="none" stroke-width="1" fill="none" fill-rule="evenodd" id="icon-service-athena"><polygon fill="url(#gradient-athena)" fill-rule="nonzero" points="0 0 48 0 48 48 0 48"/><g transform="translate(8.571429, 8.571429)" fill="#FFFFFF"><path d="M29.7196639,25.6658824 L26.9485714,22.8766387 C29.917052,18.422567 30.1945049,12.6966034 27.6705663,7.97639531 C25.1466276,3.25618721 20.2306095,0.307220264 14.8779832,0.302521008 C9.30647215,0.332461013 4.23817971,3.53212873 1.81512605,8.5492437 L2.90420168,9.06957983 C5.59326844,3.47261621 11.7949278,0.478447704 17.850165,1.85365099 C23.9054022,3.22885428 28.2053894,8.60804888 28.2131092,14.817479 C28.2200348,17.3654662 27.4864287,19.8605678 26.1015126,21.9993277 L23.8084034,19.7001681 C25.4337348,16.3959855 25.1069659,12.4651834 22.9583593,9.47472959 C20.8097526,6.4842758 17.1886625,4.92040554 13.5385939,5.40653729 C9.88852539,5.89266904 6.8029641,8.34975983 5.51193277,11.7983193 L1.51260504,11.7983193 L1.51260504,13.0084034 L5.17310924,13.0084034 C5.03983188,13.6047593 4.96485726,14.2126616 4.9492437,14.8235294 L0.302521008,14.8235294 L0.302521008,16.0336134 L4.99159664,16.0336134 C5.03992837,16.6484732 5.15144075,17.2567226 5.32436975,17.8487395 L1.57915966,17.8487395 L1.57915966,19.0588235 L5.76,19.0588235 C6.87116275,21.6538322 9.03140223,23.6553702 11.703496,24.5656819 C14.3755898,25.4759937 17.3084716,25.2095475 19.7727731,23.832605 L21.9932773,26.0531092 C15.8821492,29.9209531 7.80080095,28.2015173 3.79361345,22.1808403 L2.7892437,22.852437 C7.21893213,29.5082802 16.1955958,31.3312001 22.8705882,26.9304202 L25.6598319,29.7196639 C26.7792528,30.8407555 28.595547,30.8421099 29.7166387,29.7226891 C30.8377303,28.6032682 30.8390847,26.786974 29.7196639,25.6658824 L29.7196639,25.6658824 Z M14.9203361,23.8870588 C11.3738414,23.8870588 8.17667154,21.7503774 6.82005269,18.4736092 C5.46343384,15.196841 6.21461579,11.4254984 8.72323173,8.91861374 C11.2318477,6.41172907 15.0037079,5.66315092 18.2795388,7.02203162 C21.5553697,8.38091233 23.6898425,11.5795566 23.6873971,15.1260504 C23.6773993,19.9628367 19.7571281,23.8804023 14.9203361,23.8870588 Z M28.8363025,28.8544538 C28.1846829,29.4829918 27.1524599,29.4829918 26.5008403,28.8544538 L20.8013445,23.154958 C21.7056228,22.4856952 22.489271,21.6672636 23.1186555,20.7347899 L28.8423529,26.4887395 C29.1534604,26.797693 29.3284209,27.2180187 29.3284209,27.6564706 C29.3284209,28.0949225 29.1534604,28.5152482 28.8423529,28.8242017 L28.8363025,28.8544538 Z"/><path d="M20.4988235,16.0033613 C20.2418767,15.4617095 19.8502249,14.9950606 19.3613445,14.6480672 L19.7606723,11.7015126 L19.7606723,11.7015126 L19.7606723,11.7015126 L19.7606723,11.6228571 L19.7606723,11.5381513 C19.7606723,11.5078992 19.7606723,11.4776471 19.7606723,11.4534454 C19.7606723,10.0194958 16.6023529,9.48705882 14.6117647,9.48705882 C12.6211765,9.48705882 9.46890756,10.0194958 9.46890756,11.4534454 C9.466117,11.4816117 9.466117,11.5099849 9.46890756,11.5381513 L9.46890756,11.6228571 C9.46555231,11.6489683 9.46555231,11.6754015 9.46890756,11.7015126 C9.46890756,11.7015126 9.46890756,11.7015126 9.46890756,11.7015126 L9.46890756,11.7015126 L10.4793277,19.2342857 C10.5579832,20.7347899 14.1761345,20.7771429 14.5936134,20.7771429 C15.3785922,20.781778 16.1617273,20.7006241 16.9290756,20.5351261 C17.1840277,20.4753806 17.4346765,20.3985689 17.6793277,20.3052101 C18.3388235,20.045042 18.6836975,19.7001681 18.7078992,19.2342857 L19.022521,16.8806723 C19.2213563,16.9237278 19.424123,16.9460322 19.627563,16.9472269 C19.9380884,16.9920151 20.2446552,16.8435218 20.4020168,16.5721008 C20.5128561,16.4045805 20.5479986,16.1981182 20.4988235,16.0033613 L20.4988235,16.0033613 Z M18.0423529,15.307563 C17.2678992,15.0110924 16.330084,14.6057143 15.4406723,14.1761345 C15.2988418,13.7586743 14.8657833,13.514632 14.4352221,13.6095312 C14.0046608,13.7044304 13.7143225,14.1079152 13.7611314,14.5463189 C13.8079404,14.9847226 14.1769235,15.3178108 14.6178151,15.3196639 C14.7172195,15.3203195 14.8158205,15.3018318 14.9082353,15.2652101 C15.8741004,15.7471765 16.8658649,16.1753925 17.8789916,16.5478992 L17.5462185,19.0406723 C17.4589396,19.0973179 17.365583,19.1439962 17.2678992,19.1798319 C17.070771,19.2530072 16.8685497,19.3116514 16.6628571,19.3552941 C15.9870854,19.501748 15.2971502,19.5727708 14.6057143,19.5670588 C13.6056118,19.625567 12.6059498,19.4451301 11.6894118,19.0406723 L10.8423529,12.7421849 C13.3086435,13.4117282 15.9088355,13.4117282 18.3751261,12.7421849 L18.0423529,15.307563 Z M14.6178151,12.0342857 C13.3190489,12.0985328 12.0210849,11.8925068 10.8060504,11.4292437 C12.0004113,10.8847974 13.3063767,10.6298232 14.6178151,10.685042 C15.9292535,10.6298232 17.2352189,10.8847974 18.4295798,11.4292437 C17.2147282,11.8931913 15.9166195,12.0992403 14.6178151,12.0342857 L14.6178151,12.0342857 Z"/></g></g><g stroke="none" stroke-width="1" fill="none" fill-rule="evenodd" id="icon-service-emr"><polygon fill="url(#gradient-emr)" fill-rule="nonzero" points="0 0 48 0 48 48 0 48"/><path d="M36.5733525,30.9141776 C36.5733525,30.2941059 36.3333365,29.7120684 35.8990218,29.2729471 C35.450992,28.8211476 34.8612384,28.5952479 34.2726277,28.5952479 C33.684017,28.5952479 33.0942634,28.8211476 32.6450906,29.2729471 C31.747888,30.1776984 31.747888,31.6495042 32.6450906,32.5542556 C33.51372,33.4313458 35.0303925,33.4324983 35.8990218,32.5542556 C36.3333365,32.1162868 36.5733525,31.5342492 36.5733525,30.9141776 L36.5733525,30.9141776 Z M31.060985,29.6809496 C31.2221386,29.2510486 31.4690122,28.8465037 31.8061776,28.4961287 L30.5855247,26.1529955 L29.0677093,29.0458948 L31.060985,29.6809496 Z M27.4161706,29.7293567 L19.4933567,27.2041206 C19.0830436,27.94521 18.5298639,28.5917903 17.8726772,29.1127427 L21.7792234,34.5781326 C22.7495738,33.9050436 23.9862277,33.7920938 25.0468698,34.2427407 L27.4161706,29.7293567 Z M26.0012191,37.4237774 C26.0012191,36.8083159 25.763489,36.2297361 25.3314602,35.7940723 C24.8857162,35.344578 24.3005343,35.1198308 23.7153525,35.1198308 C23.1301706,35.1198308 22.5449887,35.344578 22.0992447,35.7940723 C21.6672159,36.2297361 21.4294858,36.8083159 21.4294858,37.4237774 C21.4294858,38.0392388 21.6672159,38.6178187 22.0992447,39.0534824 C22.9895898,39.9513185 24.4411151,39.9513185 25.3314602,39.0534824 C25.763489,38.6178187 26.0012191,38.0392388 26.0012191,37.4237774 L26.0012191,37.4237774 Z M14.0004191,29.3155914 C16.8360367,29.3155914 19.1436191,26.9897464 19.1436191,24.1291185 C19.1436191,21.2696431 16.8360367,18.9426456 14.0004191,18.9426456 C11.1648015,18.9426456 8.85721905,21.2696431 8.85721905,24.1291185 C8.85721905,26.9897464 11.1648015,29.3155914 14.0004191,29.3155914 L14.0004191,29.3155914 Z M21.4294858,12.0273484 C21.4294858,12.6428098 21.6672159,13.2213897 22.0992447,13.6570534 C22.9895898,14.556042 24.4411151,14.556042 25.3314602,13.6570534 C25.763489,13.2213897 26.0012191,12.6428098 26.0012191,12.0273484 C26.0012191,11.4118869 25.763489,10.833307 25.3314602,10.3976433 C24.8857162,9.94930154 24.3005343,9.72340183 23.7153525,9.72340183 C23.1301706,9.72340183 22.5449887,9.94930154 22.0992447,10.3976433 C21.6672159,10.833307 21.4294858,11.4118869 21.4294858,12.0273484 L21.4294858,12.0273484 Z M24.9097178,15.2590973 C24.5245493,15.4031659 24.1210938,15.4826919 23.7153525,15.4838444 C23.0867391,15.4838444 22.4626975,15.3040467 21.9118036,14.9594344 L18.4807178,19.6906502 C19.1744783,20.4029258 19.7047994,21.2777109 20.0053908,22.2539204 L27.3601669,19.9638045 L24.9097178,15.2590973 Z M20.2865524,24.1291185 C20.2865524,24.8344788 20.1676874,25.5098728 19.9562447,26.1437751 L27.9602069,28.6932146 L29.9409103,24.9174624 L27.9007743,21.001099 L20.2396922,23.3868766 C20.2671226,23.6312171 20.2865524,23.8778627 20.2865524,24.1291185 L20.2865524,24.1291185 Z M29.0117055,20.6553342 L30.5900965,23.6842344 L32.0816245,20.8420472 C32.0004762,20.7740468 31.9136133,20.7175719 31.8370368,20.640351 C31.6255941,20.4271294 31.4587258,20.1873991 31.3135733,19.9384484 L29.0117055,20.6553342 Z M32.6450906,19.8254985 C33.51372,20.7025887 35.0303925,20.7037413 35.8990218,19.8254985 C36.3333365,19.3875297 36.5733525,18.8054922 36.5733525,18.1854205 C36.5733525,17.5653489 36.3333365,16.9833114 35.8990218,16.54419 C35.450992,16.0923906 34.8612384,15.8664909 34.2726277,15.8664909 C33.684017,15.8664909 33.0942634,16.0923906 32.6450906,16.54419 C31.747888,17.4489414 31.747888,18.9207471 32.6450906,19.8254985 L32.6450906,19.8254985 Z M36.7070757,28.4580945 C38.0500224,29.8123402 38.0500224,32.016015 36.7070757,33.3691081 C36.0361738,34.0468072 35.1549722,34.3845042 34.2726277,34.3845042 C33.3902832,34.3845042 32.5079386,34.0468072 31.8370368,33.3691081 C31.1421333,32.668358 30.8152544,31.7405556 30.839256,30.8196685 L28.523673,30.0820368 L26.0092197,34.8720327 C26.0515082,34.9100668 26.0995114,34.937728 26.1395141,34.9792198 C26.7864143,35.6315628 27.1441525,36.5005852 27.1441525,37.4237774 C27.1441525,38.3469695 26.7864143,39.2159919 26.1395141,39.8683349 C25.4708981,40.5425764 24.5942682,40.8791209 23.7153525,40.8791209 C22.8364367,40.8791209 21.9598068,40.5425764 21.2911908,39.8683349 C20.6431476,39.2159919 20.2865524,38.3469695 20.2865524,37.4237774 C20.2865524,36.6815355 20.5265684,35.9807854 20.9528826,35.3929851 L16.9137562,29.7408822 C16.041698,30.2030545 15.0519177,30.4681409 14.0004191,30.4681409 C10.5350452,30.4681409 7.71428571,27.6248012 7.71428571,24.1291185 C7.71428571,20.6345883 10.5350452,17.790096 14.0004191,17.790096 C15.3422228,17.790096 16.5845914,18.219997 17.6063738,18.9449507 L21.0580324,14.1860736 C20.567714,13.5740698 20.2865524,12.8260652 20.2865524,12.0273484 C20.2865524,11.1041562 20.6431476,10.2362864 21.2911908,9.58279079 C22.6284228,8.23430783 24.8022821,8.23430783 26.1395141,9.58279079 C26.7864143,10.2362864 27.1441525,11.1041562 27.1441525,12.0273484 C27.1441525,12.9516931 26.7864143,13.8195629 26.1395141,14.4719059 C26.0640805,14.5491267 25.9760746,14.6067542 25.8937834,14.6747546 L28.4699551,19.6180396 L30.8964026,18.8619671 C30.6826741,17.7624348 30.9946949,16.5787665 31.8370368,15.7293375 C33.1776976,14.3762443 35.364129,14.3739392 36.7070757,15.7293375 C38.0500224,17.0835832 38.0500224,19.2872579 36.7070757,20.640351 C36.0361738,21.3180502 35.1549722,21.6557472 34.2726277,21.6557472 C33.8623146,21.6557472 33.4542874,21.5750687 33.0656901,21.4298475 L31.233568,24.9197675 L32.7433829,27.8195821 C34.0314688,27.1741544 35.6361472,27.3770031 36.7070757,28.4580945 L36.7070757,28.4580945 Z M14.5718857,23.5528437 L16.8577524,23.5528437 L16.8577524,24.7053932 L14.5718857,24.7053932 L14.5718857,27.0104923 L13.4289524,27.0104923 L13.4289524,24.7053932 L11.1430857,24.7053932 L11.1430857,23.5528437 L13.4289524,23.5528437 L13.4289524,21.2477446 L14.5718857,21.2477446 L14.5718857,23.5528437 Z" fill="#FFFFFF"/></g><g stroke="none" stroke-width="1" fill="none" fill-rule="evenodd" id="icon-service-glue"><rect fill="#FFFFFF" x="0" y="0" width="48" height="48"/><polygon fill="url(#gradient-glue)" fill-rule="nonzero" points="0 0 48 0 48 48 0 48"/><g transform="translate(12.857143, 6.857143)" fill="#FFFFFF"><path d="M11.4110924,34.7983206 C11.2500884,34.7986339 11.094057,34.7425601 10.970084,34.6398319 L6.79428571,31.1944538 C6.57103391,31.0085632 6.48834756,30.7026237 6.58756303,30.4295798 C6.68620434,30.1567421 6.94517255,29.9749134 7.23529412,29.9747899 L9.30252101,29.9747899 L9.30252101,27.907563 L10.6806723,27.907563 L10.6806723,30.6638655 C10.6806723,31.0444315 10.3721626,31.3529412 9.99159664,31.3529412 L9.15092437,31.3529412 L11.4042017,33.2134454 L13.6161345,31.3529412 L12.7478992,31.3529412 C12.3673332,31.3529412 12.0588235,31.0444315 12.0588235,30.6638655 L12.0588235,27.907563 L13.4369748,27.907563 L13.4369748,29.9747899 L15.5042017,29.9747899 C15.7914588,29.9776242 16.046819,30.1583697 16.1449919,30.4283452 C16.2431648,30.6983206 16.1635501,31.0008753 15.9452101,31.187563 L11.8521008,34.6329412 C11.7290858,34.7381552 11.5729568,34.7967036 11.4110924,34.7983206 Z"/><path d="M17.5507563,8.95798319 L17.3853782,10.3361345 C18.5201274,10.4194541 19.6390655,10.6511183 20.7136134,11.0252101 C19.4939496,11.5557983 16.0554622,12.0588235 11.3697479,12.0588235 C6.54621849,12.0588235 3.10084034,11.507563 2.00521008,11.0252101 C2.99747899,10.6048739 5.8502521,10.0398319 10.6806723,9.99159664 L10.6806723,8.61344538 C1.30235294,8.70991597 0.344537815,10.3292437 0.344537815,11.0252101 C0.341471846,11.0710973 0.341471846,11.117138 0.344537815,11.1630252 C0.358539329,11.2474457 0.386483587,11.3289498 0.427226891,11.4042017 L0.565042017,11.6453782 C0.595496695,11.7002023 0.632520414,11.7511099 0.675294118,11.7969748 C0.745398056,11.8656425 0.821499136,11.927907 0.902689076,11.9830252 L8.61344538,24.007395 L8.61344538,25.8472269 C8.61250869,26.1355861 8.79122213,26.3940332 9.06134454,26.494958 C9.81457775,26.7803536 10.6125198,26.9296761 11.4179832,26.9359664 C12.1983242,26.9336377 12.9707224,26.7791581 13.6919328,26.4811765 C13.9519555,26.377632 14.123518,26.1270963 14.1260504,25.8472269 L14.1260504,24.0005042 L21.8023529,11.989916 L21.8023529,11.989916 C22.1543874,11.7934672 22.378872,11.4280272 22.394958,11.0252101 C22.394958,10.2878992 21.8230252,9.46789916 17.5507563,8.95798319 Z M12.8581513,23.4285714 C12.78651,23.5394806 12.7482413,23.6686374 12.7478992,23.8006723 L12.7478992,25.3579832 C11.8502992,25.6368957 10.8891966,25.6368957 9.99159664,25.3579832 L9.99159664,23.8006723 C9.99125446,23.6686374 9.95298578,23.5394806 9.88134454,23.4285714 L3.03882353,12.7410084 C5.78684404,13.2406038 8.57698824,13.4713849 11.3697479,13.430084 C14.1577073,13.4646521 16.9426332,13.2339209 19.6868908,12.7410084 L12.8581513,23.4285714 Z"/><path d="M15.5042017,10.6806723 L12.7478992,10.6806723 C12.3673332,10.6806723 12.0588235,10.3721626 12.0588235,9.99159664 L12.0588235,7.23529412 C12.0588235,6.85472816 12.3673332,6.54621849 12.7478992,6.54621849 L15.5042017,6.54621849 C15.8847676,6.54621849 16.1932773,6.85472816 16.1932773,7.23529412 L16.1932773,9.99159664 C16.1932773,10.3721626 15.8847676,10.6806723 15.5042017,10.6806723 Z M13.4369748,9.30252101 L14.8151261,9.30252101 L14.8151261,7.92436975 L13.4369748,7.92436975 L13.4369748,9.30252101 Z"/><path d="M14.1260504,4.4789916 L11.3697479,4.4789916 C10.9891819,4.4789916 10.6806723,4.17048193 10.6806723,3.78991597 L10.6806723,1.03361345 C10.6806723,0.653047483 10.9891819,0.344537815 11.3697479,0.344537815 L14.1260504,0.344537815 C14.5066164,0.344537815 14.8151261,0.653047483 14.8151261,1.03361345 L14.8151261,3.78991597 C14.8151261,4.17048193 14.5066164,4.4789916 14.1260504,4.4789916 Z M12.0588235,3.10084034 L13.4369748,3.10084034 L13.4369748,1.72268908 L12.0588235,1.72268908 L12.0588235,3.10084034 Z"/><path d="M8.61344538,7.92436975 L5.85714286,7.92436975 C5.4765769,7.92436975 5.16806723,7.61586008 5.16806723,7.23529412 L5.16806723,4.4789916 C5.16806723,4.09842563 5.4765769,3.78991597 5.85714286,3.78991597 L8.61344538,3.78991597 C8.99401134,3.78991597 9.30252101,4.09842563 9.30252101,4.4789916 L9.30252101,7.23529412 C9.30252101,7.61586008 8.99401134,7.92436975 8.61344538,7.92436975 Z M6.54621849,6.54621849 L7.92436975,6.54621849 L7.92436975,5.16806723 L6.54621849,5.16806723 L6.54621849,6.54621849 Z"/></g></g><g stroke="none" stroke-width="1" fill="none" fill-rule="evenodd" id="icon-service-sns"><polygon fill="url(#gradient-sns)" fill-rule="nonzero" points="0 0 48 0 48 48 0 48"/><g transform="translate(6.857143, 8.571429)" fill="#FFFFFF"><path d="M27.7901299,23.6384416 L27.7901299,24.1558442 C27.7901299,24.0935065 27.7901299,24.0311688 27.7901299,23.9688312 C27.7775636,23.8590598 27.7775636,23.748213 27.7901299,23.6384416 L27.7901299,23.6384416 Z"/><path d="M19.6051948,11.2207792 L19.5428571,11.3392208 C19.5678154,11.3007712 19.5867361,11.258725 19.598961,11.2145455 L19.6051948,11.2207792 Z"/><path d="M14.2005195,9.05757391 C13.6457143,9.05757391 8.74597403,9.01402597 8.74597403,10.8654545 C8.7438301,10.9827418 8.76501986,11.0992855 8.80831169,11.2083117 C8.82653378,11.2531204 8.84734819,11.2968307 8.87064935,11.3392208 L12.2618182,18.8197403 L12.2618182,22.6909091 C12.2618182,23.0836364 12.4238961,23.3142857 12.7667532,23.3142857 L12.9288312,23.3142857 C13.7125247,23.1091801 14.440768,22.7322822 15.0607792,22.2109091 L15.4784416,21.9179221 C15.6592098,21.8049511 15.7697195,21.6074445 15.7714286,21.3942857 L15.7714286,18.8384416 L19.5428571,11.3579221 L19.5428571,11.3579221 C19.5678154,11.3194725 19.5867361,11.2774263 19.598961,11.2332468 C19.6422529,11.1242205 19.6634426,11.0076769 19.6612987,10.8903896 C19.6612987,9.01402597 14.7615584,9.05757391 14.2005195,9.05757391 Z M14.2005195,10.2046753 C16.401039,10.2046753 17.8161039,10.5911688 18.2898701,10.8654545 C17.8161039,11.1397403 16.4197403,11.5262338 14.2005195,11.5262338 C11.9812987,11.5262338 10.5911688,11.1397403 10.1174026,10.8654545 C10.5974026,10.5974026 12,10.2046753 14.2005195,10.2046753 Z M14.6555844,18.3085714 C14.6555844,18.3958442 14.6555844,18.5516883 14.6555844,18.7137662 L14.6555844,21.1511688 L14.4124675,21.3007792 C14.0571429,21.5064935 13.7454545,21.6498701 13.3901299,21.8368831 L13.3901299,18.7012987 C13.3886333,18.6158595 13.3717396,18.5313906 13.3402597,18.4519481 L10.6846753,12.3802597 C11.8389408,12.6374106 13.0179565,12.7670187 14.2005195,12.7667532 C15.348723,12.7658697 16.4936743,12.6446888 17.6166234,12.4051948 L14.6555844,18.3085714 Z"/><path d="M25.5584416,26.2877922 C23.1182592,28.0539489 20.1800425,28.9991553 17.1677922,28.987013 C10.3854545,28.987013 4.60051948,24.5797403 3.24155844,18.0779221 C4.49932636,18.0180834 5.56391168,17.129231 5.84727273,15.9023377 L9.02649351,15.9023377 L9.02649351,14.7241558 L5.85974026,14.7241558 C5.6123242,13.4628894 4.53770095,12.5322348 3.25402597,12.4675325 C4.38212696,7.89245649 7.68622619,4.16375023 12.0923456,2.49340779 C16.498465,0.823065355 21.4440467,1.42435019 25.3215584,4.10181818 L26.0322078,3.11688312 C21.7378924,0.149676116 16.24326,-0.470649087 11.3954912,1.46444787 C6.54772241,3.39954482 2.99061722,7.63307653 1.92,12.7418182 C0.932896899,13.199098 0.301171353,14.1879667 0.301171353,15.2758442 C0.301171353,16.3637216 0.932896899,17.3525903 1.92,17.8098701 C3.41748481,25.0404909 9.78373505,30.2277095 17.1677922,30.2337964 C20.4315682,30.2402168 23.6134536,29.2123238 26.2566234,27.2976623 L25.5584416,26.2877922 Z M1.55844156,15.2727273 C1.55271604,14.4800639 2.14291159,13.8093871 2.92987013,13.7142732 L3.11688312,13.7142732 C3.74777503,13.7117621 4.31794978,14.08986 4.56113229,14.6720054 C4.8043148,15.2541508 4.67252426,15.9254842 4.22730765,16.3724888 C3.78209103,16.8194934 3.11129125,16.9539736 2.52817587,16.7131263 C1.94506049,16.472279 1.56468037,15.9036242 1.56467532,15.2727273 L1.55844156,15.2727273 Z"/><path d="M3.02961039,13.7142857 L2.9361039,13.7142857 L3.02961039,13.7142857 Z"/><path d="M31.1688312,18.0779221 C32.6428447,18.078856 33.8661509,16.9388268 33.9689704,15.4684034 C34.0717898,13.99798 33.0190455,12.6987979 31.5592463,12.4945848 C30.0994471,12.2903718 28.7306038,13.2507951 28.425974,14.692987 L25.1844156,14.692987 L25.1844156,6.98181818 L26.8675325,6.98181818 C27.0563221,8.42101044 28.3118379,9.47848632 29.7621759,9.4198723 C31.2125139,9.36125828 32.3786008,8.20591564 32.4506373,6.75618235 C32.5226737,5.30644905 31.4768647,4.04119855 30.0394816,3.83909528 C28.6020985,3.63699201 27.2479353,4.56479439 26.9174026,5.97818182 L24.6233766,5.94701299 C24.46336,5.91295115 24.296661,5.95657638 24.173843,6.06465628 C24.0510249,6.17273618 23.9865594,6.33253568 24,6.49558442 L24,14.6742857 L19.2062338,14.6742857 L19.2062338,15.8275325 L24,15.8275325 L24,23.9812987 C24,24.3255801 24.2790952,24.6046753 24.6233766,24.6046753 L26.5807792,24.6046753 C26.8643557,26.0184294 28.1735338,26.9869377 29.6083906,26.8444521 C31.0432474,26.7019665 32.1363845,25.4949011 32.1363845,24.052987 C32.1363845,22.6110729 31.0432474,21.4040075 29.6083906,21.2615219 C28.1735338,21.1190363 26.8643557,22.0875446 26.5807792,23.5012987 L25.2218182,23.5012987 L25.1906494,15.8212987 L28.425974,15.8212987 C28.689181,17.1289264 29.8349914,18.0716159 31.1688312,18.0779221 Z M31.1688312,13.7142857 C32.0295347,13.7142857 32.7272727,14.4120238 32.7272727,15.2727273 C32.7272727,16.1334308 32.0295347,16.8311688 31.1688312,16.8311688 C30.3081277,16.8311688 29.6103896,16.1334308 29.6103896,15.2727273 C29.6103896,14.4120238 30.3081277,13.7142857 31.1688312,13.7142857 Z M29.6103896,5.04311688 C30.2387555,5.04566069 30.8035988,5.42680178 31.0411357,6.00854606 C31.2786727,6.59029034 31.1420368,7.25785835 30.6950374,7.69949371 C30.2480381,8.14112907 29.5788693,8.26969613 29.0000349,8.02515366 C28.4212006,7.7806112 28.046906,7.21120799 28.0519481,6.58285714 C28.0519347,6.16901677 28.2171807,5.77230541 28.5109782,5.48084892 C28.8047757,5.18939244 29.2027964,5.02732533 29.6166234,5.03064935 L29.6103896,5.04311688 Z M29.2987013,22.4415439 C30.1351427,22.4379775 30.8252457,23.0953453 30.8622859,23.9309738 C30.8993261,24.7666023 30.2700924,25.4824511 29.4366146,25.5528913 C28.6031369,25.6233315 27.8626884,25.0232393 27.7589582,24.1932468 L27.7589582,24.1932468 C27.7589582,24.1309091 27.7589582,24.0685714 27.7589582,24.0062338 C27.7587404,23.8950352 27.7712901,23.7841792 27.7963636,23.6758442 L27.7963636,23.6758442 C27.9497157,22.9654386 28.5720416,22.4541501 29.2987013,22.4415439 L29.2987013,22.4415439 Z"/></g></g></defs></g><style data-styled="true" data-styled-version="5.3.11">.bzUZla{cursor:pointer;}/*!sc*/
data-styled.g52[id="sc-fjvvzt"]{content:"bzUZla,"}/*!sc*/
.dmgznJ{stroke:#555;background-color:#555;stroke-width:1px;}/*!sc*/
data-styled.g53[id="sc-bbSZdi"]{content:"dmgznJ,"}/*!sc*/
.hBrtye{fill:var(--color-text-form-secondary-1tn2nd,#687078);}/*!sc*/
data-styled.g81[id="sc-ihgnxF"]{content:"hBrtye,"}/*!sc*/
.Qekbi{font-weight:400;font-size:12px;line-height:16px;font-family:Amazon Ember,Arial,Roboto,Arial,sans-serif;text-shadow:none;fill:var(--color-text-button-primary-default-h1el7o,#16191f);}/*!sc*/
data-styled.g82[id="sc-jMakVo"]{content:"Qekbi,"}/*!sc*/
.fxlwNh{fill:#fff9cc;stroke:var(--color-text-form-secondary-1tn2nd,#687078);stroke-width:0.6px;}/*!sc*/
data-styled.g83[id="sc-iMTnTL"]{content:"fxlwNh,"}/*!sc*/
.QJTBD{fill:#fff9cc;stroke:var(--color-text-form-secondary-1tn2nd,#687078);stroke-width:0.6px;}/*!sc*/
data-styled.g84[id="sc-krNlru"]{content:"QJTBD,"}/*!sc*/
.iVNfpT{stroke:var(--color-border-control-default-9i6y53,#687078);stroke-width:1px;fill:var(--color-background-container-content-ezsud2,#ffffff);opacity:0.5;}/*!sc*/
.node &gt; .new-look-state-node.has-errors &gt; .bounding-box &gt; .sc-hwdzOV{stroke:var(--color-border-status-error-16nl5k,#d13212);fill:var(--color-background-status-error-rv0ggo,#fdf3f1);}/*!sc*/
.selected &gt; .node &gt; .new-look-state-node &gt; .bounding-box &gt; .sc-hwdzOV{stroke:var(--color-border-status-info-kd0gvz,#0073bb);fill:var(--color-background-status-info-xdc3uu,#f1faff);}/*!sc*/
.selected &gt; .node &gt; .new-look-state-node.has-errors &gt; .bounding-box &gt; .sc-hwdzOV{stroke:var(--color-border-status-error-16nl5k,#d13212);fill:#fde0da;}/*!sc*/
data-styled.g85[id="sc-hwdzOV"]{content:"iVNfpT,"}/*!sc*/
</style><style>
.new-look-state-node &gt; rect:first-of-type {
  stroke: #687078;
  stroke-width: 1px;
  fill: #FFFFFF;
}

.new-look-state-node .error-icon circle {
 stroke-linejoin: round;
}

.new-look-state-node .error-icon circle, .new-look-state-node .error-icon path {
 stroke: var(--color-border-status-error-16nl5k, #d13212);
 fill: none;
 stroke-width: 2px;
}

.new-look-state-node.has-errors &gt; rect:first-of-type {
 stroke: var(--color-border-status-error-16nl5k, #d13212);
 fill: var(--color-background-status-error-rv0ggo, #fdf3f1);
}

.new-look-state-node.has-errors &gt; .bounding-box &gt; .new-look-state-node-sub &gt; rect {
  stroke: var(--color-border-status-error-16nl5k, #d13212);
  fill: var(--color-background-status-error-rv0ggo, #fdf3f1);
}

.new-look-state-node .handle path {
  stroke: var(--color-border-dropdown-item-hover-k0fqkn, #879596);
  stroke-width: 1px;
  fill: none;
}

.new-look-state-node {
  font-weight: 400;
  font-family: Amazon Ember, Arial, Roboto, Arial, sans-serif;
  text-shadow: none;
}

.new-look-state-node .line1 {
  fill: #687078;
  font-size: 12px;
}

.new-look-state-node .line2 {
  fill: #16191f;
}

.selected.node &gt; .new-look-state-node &gt; rect,
.selected.node &gt; .new-look-state-node &gt; .new-look-state-node &gt; rect,
.selected.node &gt; .new-look-state-node &gt; .bounding-box &gt; rect,
.selected.node &gt; .new-look-state-node.has-errors &gt; rect,
.selected.node &gt; .new-look-state-node.has-errors &gt; .bounding-box &gt; rect,
.selected.node &gt; .new-look-state-node.has-errors &gt; .new-look-state-node &gt; rect,
.selected.node &gt; .new-look-state-node &gt; .bounding-box &gt; .new-look-state-node-sub &gt; rect
 {
  stroke: var(--color-border-status-info-kd0gvz, #0073bb);
  fill: var(--color-background-status-info-xdc3uu, #f1faff);
  stroke-width: 1px;
}

.new-look-state-node-sub .item-source.not-specified {
  height: 15px;
  color: #687078;
  font-family: "Amazon Ember";
  font-size: 12px;
  letter-spacing: 0;
  line-height: 16px;
  font-weight: 400;
}
.new-look-state-node-sub .item-source .item-source_name{
  font-weight: 600;
}
.new-look-state-node-sub .item-source.not-specified .item-source_name{
  font-weight: 400;
}

.new-look-state-node-sub .item-source.not-specified {
  font-style: italic;
}

.new-look-state-node-sub &gt; rect,
.new-look-state-node &gt; .bounding-box &gt; rect {
  stroke: var(--color-border-control-default-9i6y53, #687078);
  fill: #ffffff;
}

.new-look-graph .drag-source {
  opacity: 0.2;
}

.new-look-graph .edge, .new-look-graph path.starting-connection {
  stroke-width: 1px;
  stroke: var(--color-text-form-secondary-1tn2nd, #687078);
  marker-end: url(#large-arrowhead);
}

.new-look-graph .edge-label {
  cursor: pointer;
}

.new-look-graph .edge-label rect {
  stroke-width: 1px;
  stroke: var(--color-border-control-default-9i6y53, #687078);
  fill: #fafafa;
}

.new-look-graph .edge-label.selected rect {
  stroke: var(--color-border-status-info-kd0gvz, #0073bb);
  fill: var(--color-background-status-info-xdc3uu, #f1faff);
  stroke-width: 0.6px;
}



.new-look-graph .edge-label .label {
  fill: var(--color-text-form-secondary-1tn2nd, #687078);
  font-family: Amazon Ember, Arial, Roboto, Arial, sans-serif;
}

/* centering the shape text */
@-moz-document url-prefix() {
  .new-look-graph .shape + text,
  .new-look-graph .edge-label text {
    transform: translateY(3.5px);
  }
}

.new-look-graph .edge path {
  marker-end: url(#large-arrowhead) !important;
}

.new-look-graph .edge.selected path{
  stroke: var(--color-border-status-info-kd0gvz, #0073bb);
  stroke-width: 1.1px;
}

.new-look-graph .edge.dragging-over path, .new-look-graph  g.dragging-over .starting-connection {
  stroke: #5C86FF;
  stroke-width: 2px;
}

.new-look-graph .edge.dragging-over path, .new-look-graph .dragging-over path.starting-connection {
  marker-end: url(#large-highlighted-arrowhead) !important;
}

.new-look-graph .edge.dragging-over .edge-label text {
  fill: #5C86FF;
}

#large-highlighted-arrowhead {
  fill: #5C86FF;
}

#large-highlighted-arrowhead path {
  stroke: none;
}

.new-look-graph .edge.drop-not-supported path, g.drop-not-supported .starting-connection {
  stroke: red;
}

.new-look-graph .edge.drop-not-supported .edge-label text {
  fill: red;
}

.new-look-graph .edge.drop-not-supported path {
  marker-end: url(#large-error-arrowhead) !important;
}

#large-error-arrowhead {
  fill: red;
}

.node-container * &gt; .icon  {
  &gt; rect {
    fill: #fafafa;
  }
  &gt; line {
    stroke: #d5dbdb;
  }
}


.node.Placeholder.dragging-over rect {
  stroke: var(--color-border-status-info-kd0gvz, #0073bb);
  fill: var(--color-background-status-info-xdc3uu, #f1faff);
  stroke-width: 2px;
}

.node.Placeholder.dragging-over .label {
  fill: var(--color-text-status-info-jqvvrd, #0073bb);
}

g.Placeholder rect {
  stroke-dasharray: 5 4;
  stroke: var(--color-border-dropdown-item-hover-k0fqkn, #879596);
  fill: #ffffff;
  stroke-width: 1px;
}

g.Placeholder .label {
  font-style: italic;
  fill: var(--color-text-input-placeholder-084e6q, #687078);
}

.node.Placeholder.drop-not-supported rect {
  stroke: red;
}

.node.Placeholder.drop-not-supported .label {
  fill: red;
}
</style><style>.line2 { font-size: 14px }</style></svg>